<svg id="Camada_1" data-name="Camada 1" xmlns="http://www.w3.org/2000/svg" viewBox="0 0 1541.59 260.59"><defs><style>.cls-1,.cls-2{fill:#fff;}.cls-2{fill-rule:evenodd;}</style></defs><path class="cls-1" d="M485,371.15a61.48,61.48,0,0,1-37.13,0,39.48,39.48,0,0,1-14.75-8.6,37.79,37.79,0,0,1-9.87-14,49.48,49.48,0,0,1-3.55-19.33l-.08-79.23H404.91V238.6l42.49,0V250l-15.69,0,.07,78.66a38.18,38.18,0,0,0,2.6,14.54,28.8,28.8,0,0,0,7.19,10.52,29.42,29.42,0,0,0,11,6.59,44.76,44.76,0,0,0,27.75,0,31.21,31.21,0,0,0,11.19-6.61,28.88,28.88,0,0,0,7.17-10.53,38.44,38.44,0,0,0,2.57-14.55L501.18,250l-15.69,0,0-11.49,42.49,0V250l-14.73,0,.07,79.23a48.49,48.49,0,0,1-3.61,19.34,38.9,38.9,0,0,1-9.94,14A39.49,39.49,0,0,1,485,371.15Z" transform="translate(-25.84 -169.71)"/><path class="cls-1" d="M572.49,372.41V360.93l16.08,0-.11-111-35.6,0,0,18H541.39l0-29.47,105.84-.1,0,29.47H635.74l0-18-35.21,0,.11,111,14.35,0v11.49Z" transform="translate(-25.84 -169.71)"/><path class="cls-1" d="M660.72,372.32V360.84h14.93l-.11-111-14.93,0V238.35l42.49,0V249.8h-15.5l.1,111H703.2v11.48Z" transform="translate(-25.84 -169.71)"/><path class="cls-1" d="M762.08,372.23V357.11h8.61l-.1-103.73H762V238.26l40.19,0a59.36,59.36,0,0,1,14.45,2,50.56,50.56,0,0,1,14.84,6.4,38.84,38.84,0,0,1,11.49,11.28q4.61,6.89,4.61,16.65,0,17.41-10.31,27.66t-29.84,10.27l-20.87,0,.05,44.59,21.81,0,0,15.12Zm24.43-75.05,16.65,0A37.31,37.31,0,0,0,817,295a25.79,25.79,0,0,0,8.71-5.46,18.56,18.56,0,0,0,4.58-7.28,24.3,24.3,0,0,0,1.34-7.66,16.06,16.06,0,0,0-2.21-8,26,26,0,0,0-5.85-6.89,31,31,0,0,0-9.09-4.58,35.49,35.49,0,0,0-11.2-1.71H786.47Z" transform="translate(-25.84 -169.71)"/><path class="cls-1" d="M861,372.13V357h14.54l0-41.53H862.89V300.36l26.6,0,.77,10a38.07,38.07,0,0,1,.29,4.2c-.06-.25,0,1.15.29,4.22a33.14,33.14,0,0,1,5.83-8.53A40.72,40.72,0,0,1,904,304a36.22,36.22,0,0,1,7.74-4,20,20,0,0,1,6.61-1.35l-1.14,15.7a33.21,33.21,0,0,0-8.9,1.15,23.85,23.85,0,0,0-7.17,3.27,21.68,21.68,0,0,0-7.17,7.85,22.12,22.12,0,0,0-2.57,10.72l0,19.71h12l0,15.12Z" transform="translate(-25.84 -169.71)"/><path class="cls-1" d="M985.24,370.77a38.87,38.87,0,0,1-15.12,3,38.1,38.1,0,0,1-27.19-11.08,38.84,38.84,0,0,1-8.14-11.85,35.82,35.82,0,0,1-3-14.74,36.4,36.4,0,0,1,3-14.55,38.31,38.31,0,0,1,8.12-12.06,39.81,39.81,0,0,1,12.15-8,38.13,38.13,0,0,1,15-3,38.68,38.68,0,0,1,15.12,3,39.31,39.31,0,0,1,12.26,7.93,38.16,38.16,0,0,1,8.14,12,37.4,37.4,0,0,1,0,29.19,38.6,38.6,0,0,1-8.12,12A37.65,37.65,0,0,1,985.24,370.77Zm-24.13-14.24a22.35,22.35,0,0,0,17.22,0,22.46,22.46,0,0,0,7.08-4.8,20.25,20.25,0,0,0,4.78-6.89,22.44,22.44,0,0,0,0-17.23,22.5,22.5,0,0,0-11.88-11.85,22.41,22.41,0,0,0-17.22,0,20.37,20.37,0,0,0-6.89,4.79,22.21,22.21,0,0,0-4.77,7.08,22.38,22.38,0,0,0,0,17.23,23.64,23.64,0,0,0,11.69,11.66Z" transform="translate(-25.84 -169.71)"/><path class="cls-1" d="M1073.18,371.45a37.3,37.3,0,0,1-12.92,2.21,38.15,38.15,0,0,1-27.18-11.07,39,39,0,0,1-8.15-11.86,35.94,35.94,0,0,1-3-14.73A36.83,36.83,0,0,1,1033,309.57a38.2,38.2,0,0,1,27.17-11.12,38.75,38.75,0,0,1,13.21,2.18,40.76,40.76,0,0,1,11.1,6l0,22.2-14.17,0V316a18.55,18.55,0,0,0-4.88-1.62,29.65,29.65,0,0,0-5.26-.47,24.5,24.5,0,0,0-8.52,1.44,21.5,21.5,0,0,0-6.79,3.93,20.49,20.49,0,0,0-5.26,7.28,24.72,24.72,0,0,0-.08,18.37,21.89,21.89,0,0,0,4.8,7.27,24.53,24.53,0,0,0,7.08,4.3,23.37,23.37,0,0,0,8.81,1.62A24.89,24.89,0,0,0,1068,357a20.26,20.26,0,0,0,6.6-3.64l9.58,12.05A41.14,41.14,0,0,1,1073.18,371.45Z" transform="translate(-25.84 -169.71)"/><path class="cls-1" d="M1149.63,370.89a33.12,33.12,0,0,1-13.39,2.7,38.21,38.21,0,0,1-27.19-11.08,38.45,38.45,0,0,1-8.14-11.95,37.4,37.4,0,0,1,0-29.19,38.31,38.31,0,0,1,8.12-12.06,39.81,39.81,0,0,1,12.15-8,38.13,38.13,0,0,1,15-3,28.17,28.17,0,0,1,11.39,2.38,34.24,34.24,0,0,1,9.86,6.6,45,45,0,0,1,7.47,10,51.46,51.46,0,0,1,5,12.72L1144,339.7q-12.92,4.8-25.92,9.6a20.48,20.48,0,0,0,7.56,6.4,22.88,22.88,0,0,0,10.63,2.38,20.49,20.49,0,0,0,8-1.53,19.09,19.09,0,0,0,6.5-4.6l9.78,11.47A35.29,35.29,0,0,1,1149.63,370.89Zm-23.11-55.19a21.41,21.41,0,0,0-7.36,5.08,22.7,22.7,0,0,0-3.73,6.13,21.77,21.77,0,0,0-1.62,7.47q9-3.27,17.89-6.63t17.89-6.62a23.33,23.33,0,0,0-6-5.25,14,14,0,0,0-7.37-2A24.64,24.64,0,0,0,1126.52,315.7Z" transform="translate(-25.84 -169.71)"/><path class="cls-1" d="M1222.74,370.82q-4.79,2.49-12.43,2.5a49.87,49.87,0,0,1-13.59-1.8,21.28,21.28,0,0,1-10.34-6l0-16.65h14.16v7.46a17.44,17.44,0,0,0,4.5,1.24,43.53,43.53,0,0,0,5.45.28,14.12,14.12,0,0,0,3.16-.38,8.52,8.52,0,0,0,3-1.35,6.57,6.57,0,0,0,1.62-2,6.7,6.7,0,0,0,.67-3.16,6.79,6.79,0,0,0-2-5.26,15.15,15.15,0,0,0-5.46-3q-3.26-1.33-7.27-2.58a31.6,31.6,0,0,1-7.66-3.53,16.68,16.68,0,0,1-5.75-6.12c-1.53-2.68-2.3-6.24-2.3-10.71a19.83,19.83,0,0,1,2.28-10,20.28,20.28,0,0,1,5.74-6.51,21.62,21.62,0,0,1,7.46-3.83,26.59,26.59,0,0,1,7.27-1.16,36.18,36.18,0,0,1,4.69.38,31.79,31.79,0,0,1,5.65,1.33,34.6,34.6,0,0,1,5.65,2.49,19.33,19.33,0,0,1,4.88,3.82l0,16.65h-14.17v-8.23q-1.54-.37-2.88-.66a13.75,13.75,0,0,0-2.87-.29,12.52,12.52,0,0,0-3.63.48,7.53,7.53,0,0,0-2.49,1.25,5.3,5.3,0,0,0-1.34,2.2,6.66,6.66,0,0,0-.19,2.78,5.34,5.34,0,0,0,2.88,3.73,43.79,43.79,0,0,0,5.93,2.77q3.26,1.33,7.09,3.05a36.32,36.32,0,0,1,7.08,4.2,22,22,0,0,1,5.37,6.6,20.74,20.74,0,0,1,2.11,9.86,25.8,25.8,0,0,1-1,6.51,22.81,22.81,0,0,1-3.73,7.46A21,21,0,0,1,1222.74,370.82Z" transform="translate(-25.84 -169.71)"/><path class="cls-1" d="M1286.28,370.76q-4.79,2.49-12.44,2.5a50,50,0,0,1-13.59-1.8,21.33,21.33,0,0,1-10.34-6V348.79l14.16,0v7.47a17.44,17.44,0,0,0,4.5,1.24,43.53,43.53,0,0,0,5.45.28,14.12,14.12,0,0,0,3.16-.38,8.39,8.39,0,0,0,3-1.35,6.45,6.45,0,0,0,1.63-2,6.58,6.58,0,0,0,.66-3.16,6.73,6.73,0,0,0-2-5.26,15.15,15.15,0,0,0-5.46-3q-3.26-1.33-7.27-2.58a31.6,31.6,0,0,1-7.66-3.53,16.6,16.6,0,0,1-5.75-6.12q-2.29-4-2.31-10.71a19.83,19.83,0,0,1,2.29-10,20.28,20.28,0,0,1,5.74-6.51,21.82,21.82,0,0,1,7.46-3.84,26.93,26.93,0,0,1,7.27-1.15,36.18,36.18,0,0,1,4.69.38,31.49,31.49,0,0,1,5.64,1.33,34.65,34.65,0,0,1,5.65,2.48,19.46,19.46,0,0,1,4.89,3.83v16.65h-14.16v-8.23c-1-.25-2-.48-2.87-.67a13.77,13.77,0,0,0-2.87-.28,12.21,12.21,0,0,0-3.64.48,7.48,7.48,0,0,0-2.48,1.25,5.2,5.2,0,0,0-1.34,2.2,6.5,6.5,0,0,0-.19,2.78,5.28,5.28,0,0,0,2.88,3.72,42,42,0,0,0,5.93,2.78c2.17.89,4.53,1.9,7.09,3.05a36.32,36.32,0,0,1,7.08,4.2,22,22,0,0,1,5.37,6.6,20.74,20.74,0,0,1,2.11,9.86,25.29,25.29,0,0,1-1,6.5,22.73,22.73,0,0,1-3.72,7.47A21.18,21.18,0,0,1,1286.28,370.76Z" transform="translate(-25.84 -169.71)"/><path class="cls-1" d="M1367.33,367.91a34.22,34.22,0,0,1-18.85,5.47q-11.3,0-17.8-5.91a21.19,21.19,0,0,1-6.91-15.5l0-36.94-12.64,0V299.93l28.52,0,0,44.78a14.55,14.55,0,0,0,3.74,8.9q3.34,3.74,10.63,4.1a26.25,26.25,0,0,0,9.47-1.73,25.83,25.83,0,0,0,7.94-4.79,24,24,0,0,0,5.54-7.28,20.28,20.28,0,0,0,2.1-9.19l0-19.71h-12.63l0-15.12,28.52,0,0,58.37h11.87V371.6l-27.75,0v-9.76l.57-8.61A31.42,31.42,0,0,1,1367.33,367.91Z" transform="translate(-25.84 -169.71)"/><path class="cls-1" d="M1483,371.53v-7.65a7.69,7.69,0,0,1-1.92,2.1,21.62,21.62,0,0,1-4.78,3.07,39.14,39.14,0,0,1-7.65,3,37,37,0,0,1-10,1.26,38.68,38.68,0,0,1-15.12-3,37.66,37.66,0,0,1-12.26-8.12,38.65,38.65,0,0,1-8.15-11.95,36.42,36.42,0,0,1,0-28.81,38.31,38.31,0,0,1,8.12-12.06,39,39,0,0,1,12.24-8.24,37.71,37.71,0,0,1,15.12-3.08q10.51,0,16.65,3.72t7.66,7c.13-1.28.29-2.71.48-4.31a39.7,39.7,0,0,0,.28-4.69h13.2l.06,56.65,14.54,0,0,15.12Zm-33.93-56.14a19.44,19.44,0,0,0-7.26,5.08,19.8,19.8,0,0,0-4.11,6.7,23.78,23.78,0,0,0-1.43,8.42,22.66,22.66,0,0,0,2.21,10,21.48,21.48,0,0,0,6,7.65,21,21,0,0,0,6.32,3.35,25.5,25.5,0,0,0,16.55-.31,21,21,0,0,0,6.79-4.21,21.74,21.74,0,0,0,5.07-7.28,24.09,24.09,0,0,0,0-18.37,21,21,0,0,0-4.89-7.08,23.28,23.28,0,0,0-15.7-5.73A25.1,25.1,0,0,0,1449.09,315.39Z" transform="translate(-25.84 -169.71)"/><path class="cls-1" d="M1524.94,371.49l0-15.12h14.55l-.11-113.3h-12.63l0-15.12,28.52,0,.12,128.42h12.06v15.12Z" transform="translate(-25.84 -169.71)"/><path class="cls-2" d="M29.62,338.88H60.21V253.78L29.7,338.65Zm33-85.1v85.1H93.18Zm131.16,85.66h0V254.34l-30.51,84.87-.08.23Zm33,0-30.59-85.1v85.1Zm-129.34-.56c-3.58,5.7-11.49,9.69-20.61,9.69H46.45c-9.12,0-17-4-20.61-9.69h1.33a1.18,1.18,0,0,1,.07-.41l31.24-86.91a18.69,18.69,0,0,1-4.93-.85A3,3,0,0,1,55.34,245c6.18,1.95,13.21-1.55,21.12-5.49,13.33-6.64,28.84-14.37,49.33-3.2V225h4.11v11.12c20.2-10.7,35.54-3.06,48.74,3.52,7.9,3.93,14.94,7.44,21.11,5.49a3,3,0,0,1,1.8,5.68,18.07,18.07,0,0,1-3.88.79L229.1,339a1.34,1.34,0,0,1,.07.4h2c-3.63,5.7-11.65,9.69-20.9,9.69H179.57c-9.25,0-17.26-4-20.89-9.69h2a1.34,1.34,0,0,1,.07-.4l31.51-87.67c-4.47-.76-9-2.78-13.73-5.11L176,245c-11.32-5.64-24.38-12.14-40.75-4.82a44.73,44.73,0,0,0-4.73,2.46,3.56,3.56,0,0,1-.6.27v8.5h2.37v82.23h2.64v37.13c8,1,15,4,19.83,8.06h8.36V387h2.35v6.46H90V387h3.53v-8.22h8.65c4.7-4,11.47-6.88,19.25-8V333.62h2.06V251.39h2.32V242.9a3.11,3.11,0,0,1-1.19-.4c-1.31-.78-2.61-1.46-3.88-2.06-16.76-7.94-30.09-1.31-41.6,4.42l-3.22,1.6A54.65,54.65,0,0,1,64.12,251l31.44,87.48a1.18,1.18,0,0,1,.07.41Z" transform="translate(-25.84 -169.71)"/><rect class="cls-1" x="283.64" width="3.77" height="260.59"/></svg>